<svg xmlns="http://www.w3.org/2000/svg" width="160" height="16" viewBox="0 0 160 16"><g stroke="var(--black)" stroke-width="2" stroke-linecap="round">
    <g transform="translate(0,0)"><line x1="0" y1="0" x2="12" y2="12"></line><line x1="12" y1="0" x2="0" y2="12"></line></g>
    <g transform="translate(25,0)"><line x1="0" y1="0" x2="12" y2="12"></line><line x1="12" y1="0" x2="0" y2="12"></line></g>
    <g transform="translate(50,0)"><line x1="0" y1="0" x2="12" y2="12"></line><line x1="12" y1="0" x2="0" y2="12"></line></g>
    <g transform="translate(75,0)"><line x1="0" y1="0" x2="12" y2="12"></line><line x1="12" y1="0" x2="0" y2="12"></line></g>
    <g transform="translate(100,0)"><line x1="0" y1="0" x2="12" y2="12"></line><line x1="12" y1="0" x2="0" y2="12"></line></g>
    <g transform="translate(125,0)"><line x1="0" y1="0" x2="12" y2="12"></line><line x1="12" y1="0" x2="0" y2="12"></line></g>
  </g></svg>