<svg xmlns="http://www.w3.org/2000/svg" width="180" height="18" viewBox="0 0 180 18"><g fill="var(--black)">
    <rect x="0" y="0" width="9" height="9"></rect><rect x="9" y="9" width="9" height="9"></rect>
    <rect x="18" y="0" width="9" height="9"></rect><rect x="27" y="9" width="9" height="9"></rect>
    <rect x="36" y="0" width="9" height="9"></rect><rect x="45" y="9" width="9" height="9"></rect>
    <rect x="54" y="0" width="9" height="9"></rect><rect x="63" y="9" width="9" height="9"></rect>
    <rect x="72" y="0" width="9" height="9"></rect><rect x="81" y="9" width="9" height="9"></rect>
    <rect x="90" y="0" width="9" height="9"></rect><rect x="99" y="9" width="9" height="9"></rect>
    <rect x="108" y="0" width="9" height="9"></rect><rect x="117" y="9" width="9" height="9"></rect>
    <rect x="126" y="0" width="9" height="9"></rect><rect x="135" y="9" width="9" height="9"></rect>
    <rect x="144" y="0" width="9" height="9"></rect><rect x="153" y="9" width="9" height="9"></rect>
    <rect x="162" y="0" width="9" height="9"></rect><rect x="171" y="9" width="9" height="9"></rect>
  </g></svg>